<mxfile host="app.diagrams.net" modified="2023-10-27T11:56:44.441Z" agent="Mozilla/5.0 (Windows NT 10.0; Win64; x64; rv:109.0) Gecko/20100101 Firefox/119.0" etag="EGxKH7MfIDXy9RoGjFGc" version="22.0.8" type="device">
  <diagram name="SQL Query Execution Order" id="EcACAmxvLmv3io0wgMuB">
    <mxGraphModel dx="1302" dy="1665" grid="1" gridSize="10" guides="1" tooltips="1" connect="1" arrows="1" fold="1" page="1" pageScale="1" pageWidth="827" pageHeight="1169" math="0" shadow="0">
      <root>
        <mxCell id="0" />
        <mxCell id="1" parent="0" />
        <mxCell id="fxLRTl5XbmtIzIpJdOrr-28" value="customer_id, COUNT(order_id) as total_orders, SUM(order_amount) as total_spent" style="rounded=1;whiteSpace=wrap;html=1;align=left;fontSize=14;fillColor=#b0e3e6;strokeColor=#0e8088;" vertex="1" parent="1">
          <mxGeometry x="680" y="350" width="310" height="40" as="geometry" />
        </mxCell>
        <mxCell id="fxLRTl5XbmtIzIpJdOrr-186" style="edgeStyle=orthogonalEdgeStyle;rounded=0;orthogonalLoop=1;jettySize=auto;html=1;fillColor=#b0e3e6;strokeColor=#0e8088;" edge="1" parent="1" source="fxLRTl5XbmtIzIpJdOrr-30">
          <mxGeometry relative="1" as="geometry">
            <mxPoint x="180" y="750" as="targetPoint" />
            <Array as="points">
              <mxPoint x="310" y="370" />
            </Array>
          </mxGeometry>
        </mxCell>
        <mxCell id="fxLRTl5XbmtIzIpJdOrr-30" value="&lt;font color=&quot;#ff0000&quot;&gt;SELECT&lt;/font&gt;" style="rounded=1;whiteSpace=wrap;html=1;fillColor=#b0e3e6;strokeColor=#0e8088;" vertex="1" parent="1">
          <mxGeometry x="560" y="350" width="90" height="40" as="geometry" />
        </mxCell>
        <mxCell id="fxLRTl5XbmtIzIpJdOrr-31" value="customers" style="rounded=1;whiteSpace=wrap;html=1;align=left;fontSize=14;fillColor=#dae8fc;strokeColor=#6c8ebf;" vertex="1" parent="1">
          <mxGeometry x="680" y="410" width="310" height="40" as="geometry" />
        </mxCell>
        <mxCell id="fxLRTl5XbmtIzIpJdOrr-179" style="edgeStyle=orthogonalEdgeStyle;rounded=0;orthogonalLoop=1;jettySize=auto;html=1;entryX=0.75;entryY=0;entryDx=0;entryDy=0;fillColor=#dae8fc;strokeColor=#6c8ebf;" edge="1" parent="1" source="fxLRTl5XbmtIzIpJdOrr-32" target="fxLRTl5XbmtIzIpJdOrr-49">
          <mxGeometry relative="1" as="geometry" />
        </mxCell>
        <mxCell id="fxLRTl5XbmtIzIpJdOrr-32" value="&lt;font color=&quot;#ff0000&quot;&gt;FROM&lt;/font&gt;" style="rounded=1;whiteSpace=wrap;html=1;fillColor=#dae8fc;strokeColor=#6c8ebf;" vertex="1" parent="1">
          <mxGeometry x="560" y="410" width="90" height="40" as="geometry" />
        </mxCell>
        <mxCell id="fxLRTl5XbmtIzIpJdOrr-33" value="orders" style="rounded=1;whiteSpace=wrap;html=1;align=left;fontSize=14;fillColor=#d5e8d4;strokeColor=#82b366;" vertex="1" parent="1">
          <mxGeometry x="680" y="470" width="310" height="40" as="geometry" />
        </mxCell>
        <mxCell id="fxLRTl5XbmtIzIpJdOrr-180" style="edgeStyle=orthogonalEdgeStyle;rounded=0;orthogonalLoop=1;jettySize=auto;html=1;entryX=0.75;entryY=0;entryDx=0;entryDy=0;fillColor=#d5e8d4;strokeColor=#82b366;" edge="1" parent="1" source="fxLRTl5XbmtIzIpJdOrr-34" target="fxLRTl5XbmtIzIpJdOrr-1">
          <mxGeometry relative="1" as="geometry">
            <Array as="points">
              <mxPoint x="440" y="490" />
              <mxPoint x="440" y="170" />
              <mxPoint x="348" y="170" />
            </Array>
          </mxGeometry>
        </mxCell>
        <mxCell id="fxLRTl5XbmtIzIpJdOrr-34" value="&lt;font color=&quot;#ff0000&quot;&gt;JOIN&lt;/font&gt;" style="rounded=1;whiteSpace=wrap;html=1;fillColor=#d5e8d4;strokeColor=#82b366;" vertex="1" parent="1">
          <mxGeometry x="560" y="470" width="90" height="40" as="geometry" />
        </mxCell>
        <mxCell id="fxLRTl5XbmtIzIpJdOrr-35" value="customers.id = orders.customer_id" style="rounded=1;whiteSpace=wrap;html=1;align=left;fontSize=14;fillColor=#ffe6cc;strokeColor=#d79b00;" vertex="1" parent="1">
          <mxGeometry x="680" y="530" width="310" height="40" as="geometry" />
        </mxCell>
        <mxCell id="fxLRTl5XbmtIzIpJdOrr-182" style="edgeStyle=orthogonalEdgeStyle;rounded=0;orthogonalLoop=1;jettySize=auto;html=1;exitX=0;exitY=0.5;exitDx=0;exitDy=0;fillColor=#ffe6cc;strokeColor=#d79b00;" edge="1" parent="1" source="fxLRTl5XbmtIzIpJdOrr-36">
          <mxGeometry relative="1" as="geometry">
            <mxPoint x="180" y="310" as="targetPoint" />
            <mxPoint x="630.0000000000002" y="550" as="sourcePoint" />
            <Array as="points">
              <mxPoint x="410" y="550" />
              <mxPoint x="410" y="310" />
            </Array>
          </mxGeometry>
        </mxCell>
        <mxCell id="fxLRTl5XbmtIzIpJdOrr-36" value="&lt;font color=&quot;#ff0000&quot;&gt;ON&lt;/font&gt;" style="rounded=1;whiteSpace=wrap;html=1;fillColor=#ffe6cc;strokeColor=#d79b00;" vertex="1" parent="1">
          <mxGeometry x="560" y="530" width="90" height="40" as="geometry" />
        </mxCell>
        <mxCell id="fxLRTl5XbmtIzIpJdOrr-37" value="ORDER_DATE &amp;gt;= &#39;2022-12-31&#39;" style="rounded=1;whiteSpace=wrap;html=1;align=left;fontSize=14;fillColor=#fff2cc;strokeColor=#007FFF;" vertex="1" parent="1">
          <mxGeometry x="680" y="590" width="310" height="40" as="geometry" />
        </mxCell>
        <mxCell id="fxLRTl5XbmtIzIpJdOrr-38" value="&lt;font color=&quot;#ff0000&quot;&gt;WHERE&lt;/font&gt;" style="rounded=1;whiteSpace=wrap;html=1;fillColor=#fff2cc;strokeColor=#007FFF;" vertex="1" parent="1">
          <mxGeometry x="560" y="590" width="90" height="40" as="geometry" />
        </mxCell>
        <mxCell id="fxLRTl5XbmtIzIpJdOrr-39" value="customer_id" style="rounded=1;whiteSpace=wrap;html=1;align=left;fontSize=14;fillColor=#f8cecc;strokeColor=#b85450;" vertex="1" parent="1">
          <mxGeometry x="680" y="650" width="310" height="40" as="geometry" />
        </mxCell>
        <mxCell id="fxLRTl5XbmtIzIpJdOrr-40" value="&lt;font color=&quot;#ff0000&quot;&gt;GROUP BY&lt;br&gt;&lt;/font&gt;" style="rounded=1;whiteSpace=wrap;html=1;fillColor=#f8cecc;strokeColor=#b85450;" vertex="1" parent="1">
          <mxGeometry x="560" y="650" width="90" height="40" as="geometry" />
        </mxCell>
        <mxCell id="fxLRTl5XbmtIzIpJdOrr-41" value="total_spend &amp;gt;= 1000" style="rounded=1;whiteSpace=wrap;html=1;align=left;fontSize=14;fillColor=#e1d5e7;strokeColor=#9673a6;" vertex="1" parent="1">
          <mxGeometry x="680" y="710" width="310" height="40" as="geometry" />
        </mxCell>
        <mxCell id="fxLRTl5XbmtIzIpJdOrr-185" style="edgeStyle=orthogonalEdgeStyle;rounded=0;orthogonalLoop=1;jettySize=auto;html=1;fillColor=#e1d5e7;strokeColor=#9673a6;" edge="1" parent="1" source="fxLRTl5XbmtIzIpJdOrr-42">
          <mxGeometry relative="1" as="geometry">
            <mxPoint x="180" y="640" as="targetPoint" />
            <Array as="points">
              <mxPoint x="350" y="730" />
            </Array>
          </mxGeometry>
        </mxCell>
        <mxCell id="fxLRTl5XbmtIzIpJdOrr-42" value="&lt;font color=&quot;#ff0000&quot;&gt;HAVING&lt;/font&gt;" style="rounded=1;whiteSpace=wrap;html=1;fillColor=#e1d5e7;strokeColor=#9673a6;" vertex="1" parent="1">
          <mxGeometry x="560" y="710" width="90" height="40" as="geometry" />
        </mxCell>
        <mxCell id="fxLRTl5XbmtIzIpJdOrr-43" value="total_spent DESC" style="rounded=1;whiteSpace=wrap;html=1;align=left;fontSize=14;fillColor=#bac8d3;strokeColor=#23445d;" vertex="1" parent="1">
          <mxGeometry x="680" y="770" width="310" height="40" as="geometry" />
        </mxCell>
        <mxCell id="fxLRTl5XbmtIzIpJdOrr-217" style="edgeStyle=orthogonalEdgeStyle;rounded=0;orthogonalLoop=1;jettySize=auto;html=1;fillColor=#bac8d3;strokeColor=#23445d;" edge="1" parent="1" source="fxLRTl5XbmtIzIpJdOrr-44">
          <mxGeometry relative="1" as="geometry">
            <mxPoint x="180" y="860" as="targetPoint" />
            <Array as="points">
              <mxPoint x="340" y="790" />
            </Array>
          </mxGeometry>
        </mxCell>
        <mxCell id="fxLRTl5XbmtIzIpJdOrr-44" value="&lt;font color=&quot;#ff0000&quot;&gt;ORDER BY&lt;br&gt;&lt;/font&gt;" style="rounded=1;whiteSpace=wrap;html=1;fillColor=#bac8d3;strokeColor=#23445d;" vertex="1" parent="1">
          <mxGeometry x="560" y="770" width="90" height="40" as="geometry" />
        </mxCell>
        <mxCell id="fxLRTl5XbmtIzIpJdOrr-45" value="10;" style="rounded=1;whiteSpace=wrap;html=1;align=left;fontSize=14;fillColor=#fad7ac;strokeColor=#b46504;" vertex="1" parent="1">
          <mxGeometry x="680" y="830" width="310" height="40" as="geometry" />
        </mxCell>
        <mxCell id="fxLRTl5XbmtIzIpJdOrr-232" style="edgeStyle=orthogonalEdgeStyle;rounded=0;orthogonalLoop=1;jettySize=auto;html=1;fillColor=#fad7ac;strokeColor=#b46504;" edge="1" parent="1" source="fxLRTl5XbmtIzIpJdOrr-46">
          <mxGeometry relative="1" as="geometry">
            <mxPoint x="180" y="960" as="targetPoint" />
            <Array as="points">
              <mxPoint x="380" y="850" />
            </Array>
          </mxGeometry>
        </mxCell>
        <mxCell id="fxLRTl5XbmtIzIpJdOrr-46" value="&lt;font color=&quot;#ff0000&quot;&gt;LIMIT&lt;/font&gt;" style="rounded=1;whiteSpace=wrap;html=1;fillColor=#fad7ac;strokeColor=#b46504;" vertex="1" parent="1">
          <mxGeometry x="560" y="830" width="90" height="40" as="geometry" />
        </mxCell>
        <mxCell id="fxLRTl5XbmtIzIpJdOrr-183" style="edgeStyle=orthogonalEdgeStyle;rounded=0;orthogonalLoop=1;jettySize=auto;html=1;exitX=0;exitY=0.5;exitDx=0;exitDy=0;fillColor=#fff2cc;strokeColor=#007FFF;" edge="1" parent="1" source="fxLRTl5XbmtIzIpJdOrr-38">
          <mxGeometry relative="1" as="geometry">
            <mxPoint x="180" y="420" as="targetPoint" />
            <mxPoint x="590" y="610" as="sourcePoint" />
            <Array as="points">
              <mxPoint x="390" y="610" />
              <mxPoint x="390" y="420" />
            </Array>
          </mxGeometry>
        </mxCell>
        <mxCell id="fxLRTl5XbmtIzIpJdOrr-184" style="edgeStyle=orthogonalEdgeStyle;rounded=0;orthogonalLoop=1;jettySize=auto;html=1;exitX=0;exitY=0;exitDx=0;exitDy=0;fillColor=#f8cecc;strokeColor=#b85450;" edge="1" parent="1" source="fxLRTl5XbmtIzIpJdOrr-40">
          <mxGeometry relative="1" as="geometry">
            <mxPoint x="180" y="530" as="targetPoint" />
            <mxPoint x="560" y="730" as="sourcePoint" />
            <Array as="points">
              <mxPoint x="560" y="670" />
              <mxPoint x="380" y="670" />
              <mxPoint x="380" y="530" />
            </Array>
          </mxGeometry>
        </mxCell>
        <mxCell id="fxLRTl5XbmtIzIpJdOrr-1" value="orders" style="shape=table;startSize=30;container=1;collapsible=0;childLayout=tableLayout;strokeColor=#82b366;fontSize=16;fillColor=#d5e8d4;" vertex="1" parent="1">
          <mxGeometry x="269.77714285714285" y="193.93333333333334" width="109.33285714285715" height="91.11111111111111" as="geometry" />
        </mxCell>
        <mxCell id="fxLRTl5XbmtIzIpJdOrr-2" value="" style="shape=tableRow;horizontal=0;startSize=0;swimlaneHead=0;swimlaneBody=0;strokeColor=inherit;top=0;left=0;bottom=0;right=0;collapsible=0;dropTarget=0;fillColor=none;points=[[0,0.5],[1,0.5]];portConstraint=eastwest;fontSize=16;" vertex="1" parent="fxLRTl5XbmtIzIpJdOrr-1">
          <mxGeometry y="30" width="109.33285714285715" height="20" as="geometry" />
        </mxCell>
        <mxCell id="fxLRTl5XbmtIzIpJdOrr-3" value="" style="shape=partialRectangle;html=1;whiteSpace=wrap;connectable=0;strokeColor=inherit;overflow=hidden;fillColor=none;top=0;left=0;bottom=0;right=0;pointerEvents=1;fontSize=16;" vertex="1" parent="fxLRTl5XbmtIzIpJdOrr-2">
          <mxGeometry width="36" height="20" as="geometry">
            <mxRectangle width="36" height="20" as="alternateBounds" />
          </mxGeometry>
        </mxCell>
        <mxCell id="fxLRTl5XbmtIzIpJdOrr-4" value="" style="shape=partialRectangle;html=1;whiteSpace=wrap;connectable=0;strokeColor=inherit;overflow=hidden;fillColor=none;top=0;left=0;bottom=0;right=0;pointerEvents=1;fontSize=16;" vertex="1" parent="fxLRTl5XbmtIzIpJdOrr-2">
          <mxGeometry x="36" width="37" height="20" as="geometry">
            <mxRectangle width="37" height="20" as="alternateBounds" />
          </mxGeometry>
        </mxCell>
        <mxCell id="fxLRTl5XbmtIzIpJdOrr-5" value="" style="shape=partialRectangle;html=1;whiteSpace=wrap;connectable=0;strokeColor=inherit;overflow=hidden;fillColor=none;top=0;left=0;bottom=0;right=0;pointerEvents=1;fontSize=16;" vertex="1" parent="fxLRTl5XbmtIzIpJdOrr-2">
          <mxGeometry x="73" width="36" height="20" as="geometry">
            <mxRectangle width="36" height="20" as="alternateBounds" />
          </mxGeometry>
        </mxCell>
        <mxCell id="fxLRTl5XbmtIzIpJdOrr-6" value="" style="shape=tableRow;horizontal=0;startSize=0;swimlaneHead=0;swimlaneBody=0;strokeColor=inherit;top=0;left=0;bottom=0;right=0;collapsible=0;dropTarget=0;fillColor=none;points=[[0,0.5],[1,0.5]];portConstraint=eastwest;fontSize=16;" vertex="1" parent="fxLRTl5XbmtIzIpJdOrr-1">
          <mxGeometry y="50" width="109.33285714285715" height="21" as="geometry" />
        </mxCell>
        <mxCell id="fxLRTl5XbmtIzIpJdOrr-7" value="" style="shape=partialRectangle;html=1;whiteSpace=wrap;connectable=0;strokeColor=inherit;overflow=hidden;fillColor=none;top=0;left=0;bottom=0;right=0;pointerEvents=1;fontSize=16;" vertex="1" parent="fxLRTl5XbmtIzIpJdOrr-6">
          <mxGeometry width="36" height="21" as="geometry">
            <mxRectangle width="36" height="21" as="alternateBounds" />
          </mxGeometry>
        </mxCell>
        <mxCell id="fxLRTl5XbmtIzIpJdOrr-8" value="" style="shape=partialRectangle;html=1;whiteSpace=wrap;connectable=0;strokeColor=inherit;overflow=hidden;fillColor=none;top=0;left=0;bottom=0;right=0;pointerEvents=1;fontSize=16;" vertex="1" parent="fxLRTl5XbmtIzIpJdOrr-6">
          <mxGeometry x="36" width="37" height="21" as="geometry">
            <mxRectangle width="37" height="21" as="alternateBounds" />
          </mxGeometry>
        </mxCell>
        <mxCell id="fxLRTl5XbmtIzIpJdOrr-9" value="" style="shape=partialRectangle;html=1;whiteSpace=wrap;connectable=0;strokeColor=inherit;overflow=hidden;fillColor=none;top=0;left=0;bottom=0;right=0;pointerEvents=1;fontSize=16;" vertex="1" parent="fxLRTl5XbmtIzIpJdOrr-6">
          <mxGeometry x="73" width="36" height="21" as="geometry">
            <mxRectangle width="36" height="21" as="alternateBounds" />
          </mxGeometry>
        </mxCell>
        <mxCell id="fxLRTl5XbmtIzIpJdOrr-10" value="" style="shape=tableRow;horizontal=0;startSize=0;swimlaneHead=0;swimlaneBody=0;strokeColor=inherit;top=0;left=0;bottom=0;right=0;collapsible=0;dropTarget=0;fillColor=none;points=[[0,0.5],[1,0.5]];portConstraint=eastwest;fontSize=16;" vertex="1" parent="fxLRTl5XbmtIzIpJdOrr-1">
          <mxGeometry y="71" width="109.33285714285715" height="20" as="geometry" />
        </mxCell>
        <mxCell id="fxLRTl5XbmtIzIpJdOrr-11" value="" style="shape=partialRectangle;html=1;whiteSpace=wrap;connectable=0;strokeColor=inherit;overflow=hidden;fillColor=none;top=0;left=0;bottom=0;right=0;pointerEvents=1;fontSize=16;" vertex="1" parent="fxLRTl5XbmtIzIpJdOrr-10">
          <mxGeometry width="36" height="20" as="geometry">
            <mxRectangle width="36" height="20" as="alternateBounds" />
          </mxGeometry>
        </mxCell>
        <mxCell id="fxLRTl5XbmtIzIpJdOrr-12" value="" style="shape=partialRectangle;html=1;whiteSpace=wrap;connectable=0;strokeColor=inherit;overflow=hidden;fillColor=none;top=0;left=0;bottom=0;right=0;pointerEvents=1;fontSize=16;" vertex="1" parent="fxLRTl5XbmtIzIpJdOrr-10">
          <mxGeometry x="36" width="37" height="20" as="geometry">
            <mxRectangle width="37" height="20" as="alternateBounds" />
          </mxGeometry>
        </mxCell>
        <mxCell id="fxLRTl5XbmtIzIpJdOrr-13" value="" style="shape=partialRectangle;html=1;whiteSpace=wrap;connectable=0;strokeColor=inherit;overflow=hidden;fillColor=none;top=0;left=0;bottom=0;right=0;pointerEvents=1;fontSize=16;" vertex="1" parent="fxLRTl5XbmtIzIpJdOrr-10">
          <mxGeometry x="73" width="36" height="20" as="geometry">
            <mxRectangle width="36" height="20" as="alternateBounds" />
          </mxGeometry>
        </mxCell>
        <mxCell id="fxLRTl5XbmtIzIpJdOrr-49" value="customers" style="shape=table;startSize=30;container=1;collapsible=0;childLayout=tableLayout;fontSize=16;fillColor=#dae8fc;strokeColor=#6c8ebf;" vertex="1" parent="1">
          <mxGeometry x="269.77714285714285" y="60" width="109.33285714285715" height="91.11111111111111" as="geometry" />
        </mxCell>
        <mxCell id="fxLRTl5XbmtIzIpJdOrr-50" value="" style="shape=tableRow;horizontal=0;startSize=0;swimlaneHead=0;swimlaneBody=0;strokeColor=inherit;top=0;left=0;bottom=0;right=0;collapsible=0;dropTarget=0;fillColor=none;points=[[0,0.5],[1,0.5]];portConstraint=eastwest;fontSize=16;" vertex="1" parent="fxLRTl5XbmtIzIpJdOrr-49">
          <mxGeometry y="30" width="109.33285714285715" height="20" as="geometry" />
        </mxCell>
        <mxCell id="fxLRTl5XbmtIzIpJdOrr-51" value="" style="shape=partialRectangle;html=1;whiteSpace=wrap;connectable=0;strokeColor=inherit;overflow=hidden;fillColor=none;top=0;left=0;bottom=0;right=0;pointerEvents=1;fontSize=16;" vertex="1" parent="fxLRTl5XbmtIzIpJdOrr-50">
          <mxGeometry width="36" height="20" as="geometry">
            <mxRectangle width="36" height="20" as="alternateBounds" />
          </mxGeometry>
        </mxCell>
        <mxCell id="fxLRTl5XbmtIzIpJdOrr-52" value="" style="shape=partialRectangle;html=1;whiteSpace=wrap;connectable=0;strokeColor=inherit;overflow=hidden;fillColor=none;top=0;left=0;bottom=0;right=0;pointerEvents=1;fontSize=16;" vertex="1" parent="fxLRTl5XbmtIzIpJdOrr-50">
          <mxGeometry x="36" width="37" height="20" as="geometry">
            <mxRectangle width="37" height="20" as="alternateBounds" />
          </mxGeometry>
        </mxCell>
        <mxCell id="fxLRTl5XbmtIzIpJdOrr-53" value="" style="shape=partialRectangle;html=1;whiteSpace=wrap;connectable=0;strokeColor=inherit;overflow=hidden;fillColor=none;top=0;left=0;bottom=0;right=0;pointerEvents=1;fontSize=16;" vertex="1" parent="fxLRTl5XbmtIzIpJdOrr-50">
          <mxGeometry x="73" width="36" height="20" as="geometry">
            <mxRectangle width="36" height="20" as="alternateBounds" />
          </mxGeometry>
        </mxCell>
        <mxCell id="fxLRTl5XbmtIzIpJdOrr-54" value="" style="shape=tableRow;horizontal=0;startSize=0;swimlaneHead=0;swimlaneBody=0;strokeColor=inherit;top=0;left=0;bottom=0;right=0;collapsible=0;dropTarget=0;fillColor=none;points=[[0,0.5],[1,0.5]];portConstraint=eastwest;fontSize=16;" vertex="1" parent="fxLRTl5XbmtIzIpJdOrr-49">
          <mxGeometry y="50" width="109.33285714285715" height="21" as="geometry" />
        </mxCell>
        <mxCell id="fxLRTl5XbmtIzIpJdOrr-55" value="" style="shape=partialRectangle;html=1;whiteSpace=wrap;connectable=0;strokeColor=inherit;overflow=hidden;fillColor=none;top=0;left=0;bottom=0;right=0;pointerEvents=1;fontSize=16;" vertex="1" parent="fxLRTl5XbmtIzIpJdOrr-54">
          <mxGeometry width="36" height="21" as="geometry">
            <mxRectangle width="36" height="21" as="alternateBounds" />
          </mxGeometry>
        </mxCell>
        <mxCell id="fxLRTl5XbmtIzIpJdOrr-56" value="" style="shape=partialRectangle;html=1;whiteSpace=wrap;connectable=0;strokeColor=inherit;overflow=hidden;fillColor=none;top=0;left=0;bottom=0;right=0;pointerEvents=1;fontSize=16;" vertex="1" parent="fxLRTl5XbmtIzIpJdOrr-54">
          <mxGeometry x="36" width="37" height="21" as="geometry">
            <mxRectangle width="37" height="21" as="alternateBounds" />
          </mxGeometry>
        </mxCell>
        <mxCell id="fxLRTl5XbmtIzIpJdOrr-57" value="" style="shape=partialRectangle;html=1;whiteSpace=wrap;connectable=0;strokeColor=inherit;overflow=hidden;fillColor=none;top=0;left=0;bottom=0;right=0;pointerEvents=1;fontSize=16;" vertex="1" parent="fxLRTl5XbmtIzIpJdOrr-54">
          <mxGeometry x="73" width="36" height="21" as="geometry">
            <mxRectangle width="36" height="21" as="alternateBounds" />
          </mxGeometry>
        </mxCell>
        <mxCell id="fxLRTl5XbmtIzIpJdOrr-58" value="" style="shape=tableRow;horizontal=0;startSize=0;swimlaneHead=0;swimlaneBody=0;strokeColor=inherit;top=0;left=0;bottom=0;right=0;collapsible=0;dropTarget=0;fillColor=none;points=[[0,0.5],[1,0.5]];portConstraint=eastwest;fontSize=16;" vertex="1" parent="fxLRTl5XbmtIzIpJdOrr-49">
          <mxGeometry y="71" width="109.33285714285715" height="20" as="geometry" />
        </mxCell>
        <mxCell id="fxLRTl5XbmtIzIpJdOrr-59" value="" style="shape=partialRectangle;html=1;whiteSpace=wrap;connectable=0;strokeColor=inherit;overflow=hidden;fillColor=none;top=0;left=0;bottom=0;right=0;pointerEvents=1;fontSize=16;" vertex="1" parent="fxLRTl5XbmtIzIpJdOrr-58">
          <mxGeometry width="36" height="20" as="geometry">
            <mxRectangle width="36" height="20" as="alternateBounds" />
          </mxGeometry>
        </mxCell>
        <mxCell id="fxLRTl5XbmtIzIpJdOrr-60" value="" style="shape=partialRectangle;html=1;whiteSpace=wrap;connectable=0;strokeColor=inherit;overflow=hidden;fillColor=none;top=0;left=0;bottom=0;right=0;pointerEvents=1;fontSize=16;" vertex="1" parent="fxLRTl5XbmtIzIpJdOrr-58">
          <mxGeometry x="36" width="37" height="20" as="geometry">
            <mxRectangle width="37" height="20" as="alternateBounds" />
          </mxGeometry>
        </mxCell>
        <mxCell id="fxLRTl5XbmtIzIpJdOrr-61" value="" style="shape=partialRectangle;html=1;whiteSpace=wrap;connectable=0;strokeColor=inherit;overflow=hidden;fillColor=none;top=0;left=0;bottom=0;right=0;pointerEvents=1;fontSize=16;" vertex="1" parent="fxLRTl5XbmtIzIpJdOrr-58">
          <mxGeometry x="73" width="36" height="20" as="geometry">
            <mxRectangle width="36" height="20" as="alternateBounds" />
          </mxGeometry>
        </mxCell>
        <mxCell id="fxLRTl5XbmtIzIpJdOrr-75" value="" style="shape=table;startSize=0;container=1;collapsible=0;childLayout=tableLayout;fontSize=16;fillColor=#ffe6cc;strokeColor=#d79b00;" vertex="1" parent="1">
          <mxGeometry x="124" y="324.77777777777777" width="109.33285714285715" height="72.88888888888889" as="geometry" />
        </mxCell>
        <mxCell id="fxLRTl5XbmtIzIpJdOrr-76" value="" style="shape=tableRow;horizontal=0;startSize=0;swimlaneHead=0;swimlaneBody=0;strokeColor=inherit;top=0;left=0;bottom=0;right=0;collapsible=0;dropTarget=0;fillColor=none;points=[[0,0.5],[1,0.5]];portConstraint=eastwest;fontSize=16;" vertex="1" parent="fxLRTl5XbmtIzIpJdOrr-75">
          <mxGeometry width="109.33285714285715" height="25" as="geometry" />
        </mxCell>
        <mxCell id="fxLRTl5XbmtIzIpJdOrr-77" value="" style="shape=partialRectangle;html=1;whiteSpace=wrap;connectable=0;strokeColor=inherit;overflow=hidden;fillColor=none;top=0;left=0;bottom=0;right=0;pointerEvents=1;fontSize=16;" vertex="1" parent="fxLRTl5XbmtIzIpJdOrr-76">
          <mxGeometry width="36" height="25" as="geometry">
            <mxRectangle width="36" height="25" as="alternateBounds" />
          </mxGeometry>
        </mxCell>
        <mxCell id="fxLRTl5XbmtIzIpJdOrr-78" value="" style="shape=partialRectangle;html=1;whiteSpace=wrap;connectable=0;strokeColor=inherit;overflow=hidden;fillColor=none;top=0;left=0;bottom=0;right=0;pointerEvents=1;fontSize=16;" vertex="1" parent="fxLRTl5XbmtIzIpJdOrr-76">
          <mxGeometry x="36" width="37" height="25" as="geometry">
            <mxRectangle width="37" height="25" as="alternateBounds" />
          </mxGeometry>
        </mxCell>
        <mxCell id="fxLRTl5XbmtIzIpJdOrr-79" value="" style="shape=partialRectangle;html=1;whiteSpace=wrap;connectable=0;strokeColor=inherit;overflow=hidden;fillColor=none;top=0;left=0;bottom=0;right=0;pointerEvents=1;fontSize=16;" vertex="1" parent="fxLRTl5XbmtIzIpJdOrr-76">
          <mxGeometry x="73" width="36" height="25" as="geometry">
            <mxRectangle width="36" height="25" as="alternateBounds" />
          </mxGeometry>
        </mxCell>
        <mxCell id="fxLRTl5XbmtIzIpJdOrr-80" value="" style="shape=tableRow;horizontal=0;startSize=0;swimlaneHead=0;swimlaneBody=0;strokeColor=inherit;top=0;left=0;bottom=0;right=0;collapsible=0;dropTarget=0;fillColor=none;points=[[0,0.5],[1,0.5]];portConstraint=eastwest;fontSize=16;" vertex="1" parent="fxLRTl5XbmtIzIpJdOrr-75">
          <mxGeometry y="25" width="109.33285714285715" height="23" as="geometry" />
        </mxCell>
        <mxCell id="fxLRTl5XbmtIzIpJdOrr-81" value="" style="shape=partialRectangle;html=1;whiteSpace=wrap;connectable=0;strokeColor=inherit;overflow=hidden;fillColor=none;top=0;left=0;bottom=0;right=0;pointerEvents=1;fontSize=16;" vertex="1" parent="fxLRTl5XbmtIzIpJdOrr-80">
          <mxGeometry width="36" height="23" as="geometry">
            <mxRectangle width="36" height="23" as="alternateBounds" />
          </mxGeometry>
        </mxCell>
        <mxCell id="fxLRTl5XbmtIzIpJdOrr-82" value="" style="shape=partialRectangle;html=1;whiteSpace=wrap;connectable=0;strokeColor=inherit;overflow=hidden;fillColor=none;top=0;left=0;bottom=0;right=0;pointerEvents=1;fontSize=16;" vertex="1" parent="fxLRTl5XbmtIzIpJdOrr-80">
          <mxGeometry x="36" width="37" height="23" as="geometry">
            <mxRectangle width="37" height="23" as="alternateBounds" />
          </mxGeometry>
        </mxCell>
        <mxCell id="fxLRTl5XbmtIzIpJdOrr-83" value="" style="shape=partialRectangle;html=1;whiteSpace=wrap;connectable=0;strokeColor=inherit;overflow=hidden;fillColor=none;top=0;left=0;bottom=0;right=0;pointerEvents=1;fontSize=16;" vertex="1" parent="fxLRTl5XbmtIzIpJdOrr-80">
          <mxGeometry x="73" width="36" height="23" as="geometry">
            <mxRectangle width="36" height="23" as="alternateBounds" />
          </mxGeometry>
        </mxCell>
        <mxCell id="fxLRTl5XbmtIzIpJdOrr-84" value="" style="shape=tableRow;horizontal=0;startSize=0;swimlaneHead=0;swimlaneBody=0;strokeColor=inherit;top=0;left=0;bottom=0;right=0;collapsible=0;dropTarget=0;fillColor=none;points=[[0,0.5],[1,0.5]];portConstraint=eastwest;fontSize=16;" vertex="1" parent="fxLRTl5XbmtIzIpJdOrr-75">
          <mxGeometry y="48" width="109.33285714285715" height="25" as="geometry" />
        </mxCell>
        <mxCell id="fxLRTl5XbmtIzIpJdOrr-85" value="" style="shape=partialRectangle;html=1;whiteSpace=wrap;connectable=0;strokeColor=inherit;overflow=hidden;fillColor=none;top=0;left=0;bottom=0;right=0;pointerEvents=1;fontSize=16;" vertex="1" parent="fxLRTl5XbmtIzIpJdOrr-84">
          <mxGeometry width="36" height="25" as="geometry">
            <mxRectangle width="36" height="25" as="alternateBounds" />
          </mxGeometry>
        </mxCell>
        <mxCell id="fxLRTl5XbmtIzIpJdOrr-86" value="" style="shape=partialRectangle;html=1;whiteSpace=wrap;connectable=0;strokeColor=inherit;overflow=hidden;fillColor=none;top=0;left=0;bottom=0;right=0;pointerEvents=1;fontSize=16;" vertex="1" parent="fxLRTl5XbmtIzIpJdOrr-84">
          <mxGeometry x="36" width="37" height="25" as="geometry">
            <mxRectangle width="37" height="25" as="alternateBounds" />
          </mxGeometry>
        </mxCell>
        <mxCell id="fxLRTl5XbmtIzIpJdOrr-87" value="" style="shape=partialRectangle;html=1;whiteSpace=wrap;connectable=0;strokeColor=inherit;overflow=hidden;fillColor=none;top=0;left=0;bottom=0;right=0;pointerEvents=1;fontSize=16;" vertex="1" parent="fxLRTl5XbmtIzIpJdOrr-84">
          <mxGeometry x="73" width="36" height="25" as="geometry">
            <mxRectangle width="36" height="25" as="alternateBounds" />
          </mxGeometry>
        </mxCell>
        <mxCell id="fxLRTl5XbmtIzIpJdOrr-88" value="" style="shape=table;startSize=0;container=1;collapsible=0;childLayout=tableLayout;fontSize=16;fillColor=#d5e8d4;strokeColor=#82b366;" vertex="1" parent="1">
          <mxGeometry x="124" y="215.44444444444446" width="109.33285714285715" height="72.88888888888889" as="geometry" />
        </mxCell>
        <mxCell id="fxLRTl5XbmtIzIpJdOrr-89" value="" style="shape=tableRow;horizontal=0;startSize=0;swimlaneHead=0;swimlaneBody=0;strokeColor=inherit;top=0;left=0;bottom=0;right=0;collapsible=0;dropTarget=0;fillColor=none;points=[[0,0.5],[1,0.5]];portConstraint=eastwest;fontSize=16;" vertex="1" parent="fxLRTl5XbmtIzIpJdOrr-88">
          <mxGeometry width="109.33285714285715" height="25" as="geometry" />
        </mxCell>
        <mxCell id="fxLRTl5XbmtIzIpJdOrr-90" value="" style="shape=partialRectangle;html=1;whiteSpace=wrap;connectable=0;strokeColor=inherit;overflow=hidden;fillColor=none;top=0;left=0;bottom=0;right=0;pointerEvents=1;fontSize=16;" vertex="1" parent="fxLRTl5XbmtIzIpJdOrr-89">
          <mxGeometry width="36" height="25" as="geometry">
            <mxRectangle width="36" height="25" as="alternateBounds" />
          </mxGeometry>
        </mxCell>
        <mxCell id="fxLRTl5XbmtIzIpJdOrr-91" value="" style="shape=partialRectangle;html=1;whiteSpace=wrap;connectable=0;strokeColor=inherit;overflow=hidden;fillColor=none;top=0;left=0;bottom=0;right=0;pointerEvents=1;fontSize=16;" vertex="1" parent="fxLRTl5XbmtIzIpJdOrr-89">
          <mxGeometry x="36" width="37" height="25" as="geometry">
            <mxRectangle width="37" height="25" as="alternateBounds" />
          </mxGeometry>
        </mxCell>
        <mxCell id="fxLRTl5XbmtIzIpJdOrr-92" value="" style="shape=partialRectangle;html=1;whiteSpace=wrap;connectable=0;strokeColor=inherit;overflow=hidden;fillColor=none;top=0;left=0;bottom=0;right=0;pointerEvents=1;fontSize=16;" vertex="1" parent="fxLRTl5XbmtIzIpJdOrr-89">
          <mxGeometry x="73" width="36" height="25" as="geometry">
            <mxRectangle width="36" height="25" as="alternateBounds" />
          </mxGeometry>
        </mxCell>
        <mxCell id="fxLRTl5XbmtIzIpJdOrr-93" value="" style="shape=tableRow;horizontal=0;startSize=0;swimlaneHead=0;swimlaneBody=0;strokeColor=inherit;top=0;left=0;bottom=0;right=0;collapsible=0;dropTarget=0;fillColor=none;points=[[0,0.5],[1,0.5]];portConstraint=eastwest;fontSize=16;" vertex="1" parent="fxLRTl5XbmtIzIpJdOrr-88">
          <mxGeometry y="25" width="109.33285714285715" height="23" as="geometry" />
        </mxCell>
        <mxCell id="fxLRTl5XbmtIzIpJdOrr-94" value="" style="shape=partialRectangle;html=1;whiteSpace=wrap;connectable=0;strokeColor=inherit;overflow=hidden;fillColor=none;top=0;left=0;bottom=0;right=0;pointerEvents=1;fontSize=16;" vertex="1" parent="fxLRTl5XbmtIzIpJdOrr-93">
          <mxGeometry width="36" height="23" as="geometry">
            <mxRectangle width="36" height="23" as="alternateBounds" />
          </mxGeometry>
        </mxCell>
        <mxCell id="fxLRTl5XbmtIzIpJdOrr-95" value="" style="shape=partialRectangle;html=1;whiteSpace=wrap;connectable=0;strokeColor=inherit;overflow=hidden;fillColor=none;top=0;left=0;bottom=0;right=0;pointerEvents=1;fontSize=16;" vertex="1" parent="fxLRTl5XbmtIzIpJdOrr-93">
          <mxGeometry x="36" width="37" height="23" as="geometry">
            <mxRectangle width="37" height="23" as="alternateBounds" />
          </mxGeometry>
        </mxCell>
        <mxCell id="fxLRTl5XbmtIzIpJdOrr-96" value="" style="shape=partialRectangle;html=1;whiteSpace=wrap;connectable=0;strokeColor=inherit;overflow=hidden;fillColor=none;top=0;left=0;bottom=0;right=0;pointerEvents=1;fontSize=16;" vertex="1" parent="fxLRTl5XbmtIzIpJdOrr-93">
          <mxGeometry x="73" width="36" height="23" as="geometry">
            <mxRectangle width="36" height="23" as="alternateBounds" />
          </mxGeometry>
        </mxCell>
        <mxCell id="fxLRTl5XbmtIzIpJdOrr-97" value="" style="shape=tableRow;horizontal=0;startSize=0;swimlaneHead=0;swimlaneBody=0;strokeColor=inherit;top=0;left=0;bottom=0;right=0;collapsible=0;dropTarget=0;fillColor=none;points=[[0,0.5],[1,0.5]];portConstraint=eastwest;fontSize=16;" vertex="1" parent="fxLRTl5XbmtIzIpJdOrr-88">
          <mxGeometry y="48" width="109.33285714285715" height="25" as="geometry" />
        </mxCell>
        <mxCell id="fxLRTl5XbmtIzIpJdOrr-98" value="" style="shape=partialRectangle;html=1;whiteSpace=wrap;connectable=0;strokeColor=inherit;overflow=hidden;fillColor=none;top=0;left=0;bottom=0;right=0;pointerEvents=1;fontSize=16;" vertex="1" parent="fxLRTl5XbmtIzIpJdOrr-97">
          <mxGeometry width="36" height="25" as="geometry">
            <mxRectangle width="36" height="25" as="alternateBounds" />
          </mxGeometry>
        </mxCell>
        <mxCell id="fxLRTl5XbmtIzIpJdOrr-99" value="" style="shape=partialRectangle;html=1;whiteSpace=wrap;connectable=0;strokeColor=inherit;overflow=hidden;fillColor=none;top=0;left=0;bottom=0;right=0;pointerEvents=1;fontSize=16;" vertex="1" parent="fxLRTl5XbmtIzIpJdOrr-97">
          <mxGeometry x="36" width="37" height="25" as="geometry">
            <mxRectangle width="37" height="25" as="alternateBounds" />
          </mxGeometry>
        </mxCell>
        <mxCell id="fxLRTl5XbmtIzIpJdOrr-100" value="" style="shape=partialRectangle;html=1;whiteSpace=wrap;connectable=0;strokeColor=inherit;overflow=hidden;fillColor=none;top=0;left=0;bottom=0;right=0;pointerEvents=1;fontSize=16;" vertex="1" parent="fxLRTl5XbmtIzIpJdOrr-97">
          <mxGeometry x="73" width="36" height="25" as="geometry">
            <mxRectangle width="36" height="25" as="alternateBounds" />
          </mxGeometry>
        </mxCell>
        <mxCell id="fxLRTl5XbmtIzIpJdOrr-101" value="" style="shape=table;startSize=0;container=1;collapsible=0;childLayout=tableLayout;fontSize=16;fillColor=#fff2cc;strokeColor=#007FFF;" vertex="1" parent="1">
          <mxGeometry x="124" y="434.1111111111111" width="109.33285714285715" height="72.88888888888889" as="geometry" />
        </mxCell>
        <mxCell id="fxLRTl5XbmtIzIpJdOrr-102" value="" style="shape=tableRow;horizontal=0;startSize=0;swimlaneHead=0;swimlaneBody=0;strokeColor=inherit;top=0;left=0;bottom=0;right=0;collapsible=0;dropTarget=0;fillColor=none;points=[[0,0.5],[1,0.5]];portConstraint=eastwest;fontSize=16;" vertex="1" parent="fxLRTl5XbmtIzIpJdOrr-101">
          <mxGeometry width="109.33285714285715" height="25" as="geometry" />
        </mxCell>
        <mxCell id="fxLRTl5XbmtIzIpJdOrr-103" value="" style="shape=partialRectangle;html=1;whiteSpace=wrap;connectable=0;strokeColor=inherit;overflow=hidden;fillColor=none;top=0;left=0;bottom=0;right=0;pointerEvents=1;fontSize=16;" vertex="1" parent="fxLRTl5XbmtIzIpJdOrr-102">
          <mxGeometry width="36" height="25" as="geometry">
            <mxRectangle width="36" height="25" as="alternateBounds" />
          </mxGeometry>
        </mxCell>
        <mxCell id="fxLRTl5XbmtIzIpJdOrr-104" value="" style="shape=partialRectangle;html=1;whiteSpace=wrap;connectable=0;strokeColor=inherit;overflow=hidden;fillColor=none;top=0;left=0;bottom=0;right=0;pointerEvents=1;fontSize=16;" vertex="1" parent="fxLRTl5XbmtIzIpJdOrr-102">
          <mxGeometry x="36" width="37" height="25" as="geometry">
            <mxRectangle width="37" height="25" as="alternateBounds" />
          </mxGeometry>
        </mxCell>
        <mxCell id="fxLRTl5XbmtIzIpJdOrr-105" value="" style="shape=partialRectangle;html=1;whiteSpace=wrap;connectable=0;strokeColor=inherit;overflow=hidden;fillColor=none;top=0;left=0;bottom=0;right=0;pointerEvents=1;fontSize=16;" vertex="1" parent="fxLRTl5XbmtIzIpJdOrr-102">
          <mxGeometry x="73" width="36" height="25" as="geometry">
            <mxRectangle width="36" height="25" as="alternateBounds" />
          </mxGeometry>
        </mxCell>
        <mxCell id="fxLRTl5XbmtIzIpJdOrr-106" value="" style="shape=tableRow;horizontal=0;startSize=0;swimlaneHead=0;swimlaneBody=0;strokeColor=inherit;top=0;left=0;bottom=0;right=0;collapsible=0;dropTarget=0;fillColor=none;points=[[0,0.5],[1,0.5]];portConstraint=eastwest;fontSize=16;" vertex="1" parent="fxLRTl5XbmtIzIpJdOrr-101">
          <mxGeometry y="25" width="109.33285714285715" height="23" as="geometry" />
        </mxCell>
        <mxCell id="fxLRTl5XbmtIzIpJdOrr-107" value="" style="shape=partialRectangle;html=1;whiteSpace=wrap;connectable=0;strokeColor=inherit;overflow=hidden;fillColor=none;top=0;left=0;bottom=0;right=0;pointerEvents=1;fontSize=16;" vertex="1" parent="fxLRTl5XbmtIzIpJdOrr-106">
          <mxGeometry width="36" height="23" as="geometry">
            <mxRectangle width="36" height="23" as="alternateBounds" />
          </mxGeometry>
        </mxCell>
        <mxCell id="fxLRTl5XbmtIzIpJdOrr-108" value="" style="shape=partialRectangle;html=1;whiteSpace=wrap;connectable=0;strokeColor=inherit;overflow=hidden;fillColor=none;top=0;left=0;bottom=0;right=0;pointerEvents=1;fontSize=16;" vertex="1" parent="fxLRTl5XbmtIzIpJdOrr-106">
          <mxGeometry x="36" width="37" height="23" as="geometry">
            <mxRectangle width="37" height="23" as="alternateBounds" />
          </mxGeometry>
        </mxCell>
        <mxCell id="fxLRTl5XbmtIzIpJdOrr-109" value="" style="shape=partialRectangle;html=1;whiteSpace=wrap;connectable=0;strokeColor=inherit;overflow=hidden;fillColor=none;top=0;left=0;bottom=0;right=0;pointerEvents=1;fontSize=16;" vertex="1" parent="fxLRTl5XbmtIzIpJdOrr-106">
          <mxGeometry x="73" width="36" height="23" as="geometry">
            <mxRectangle width="36" height="23" as="alternateBounds" />
          </mxGeometry>
        </mxCell>
        <mxCell id="fxLRTl5XbmtIzIpJdOrr-110" value="" style="shape=tableRow;horizontal=0;startSize=0;swimlaneHead=0;swimlaneBody=0;strokeColor=inherit;top=0;left=0;bottom=0;right=0;collapsible=0;dropTarget=0;fillColor=none;points=[[0,0.5],[1,0.5]];portConstraint=eastwest;fontSize=16;" vertex="1" parent="fxLRTl5XbmtIzIpJdOrr-101">
          <mxGeometry y="48" width="109.33285714285715" height="25" as="geometry" />
        </mxCell>
        <mxCell id="fxLRTl5XbmtIzIpJdOrr-111" value="" style="shape=partialRectangle;html=1;whiteSpace=wrap;connectable=0;strokeColor=inherit;overflow=hidden;fillColor=none;top=0;left=0;bottom=0;right=0;pointerEvents=1;fontSize=16;" vertex="1" parent="fxLRTl5XbmtIzIpJdOrr-110">
          <mxGeometry width="36" height="25" as="geometry">
            <mxRectangle width="36" height="25" as="alternateBounds" />
          </mxGeometry>
        </mxCell>
        <mxCell id="fxLRTl5XbmtIzIpJdOrr-112" value="" style="shape=partialRectangle;html=1;whiteSpace=wrap;connectable=0;strokeColor=inherit;overflow=hidden;fillColor=none;top=0;left=0;bottom=0;right=0;pointerEvents=1;fontSize=16;" vertex="1" parent="fxLRTl5XbmtIzIpJdOrr-110">
          <mxGeometry x="36" width="37" height="25" as="geometry">
            <mxRectangle width="37" height="25" as="alternateBounds" />
          </mxGeometry>
        </mxCell>
        <mxCell id="fxLRTl5XbmtIzIpJdOrr-113" value="" style="shape=partialRectangle;html=1;whiteSpace=wrap;connectable=0;strokeColor=inherit;overflow=hidden;fillColor=none;top=0;left=0;bottom=0;right=0;pointerEvents=1;fontSize=16;" vertex="1" parent="fxLRTl5XbmtIzIpJdOrr-110">
          <mxGeometry x="73" width="36" height="25" as="geometry">
            <mxRectangle width="36" height="25" as="alternateBounds" />
          </mxGeometry>
        </mxCell>
        <mxCell id="fxLRTl5XbmtIzIpJdOrr-114" value="" style="shape=table;startSize=0;container=1;collapsible=0;childLayout=tableLayout;fontSize=16;fillColor=#e1d5e7;strokeColor=#9673a6;" vertex="1" parent="1">
          <mxGeometry x="124" y="652.7777777777777" width="109.33285714285715" height="72.88888888888889" as="geometry" />
        </mxCell>
        <mxCell id="fxLRTl5XbmtIzIpJdOrr-115" value="" style="shape=tableRow;horizontal=0;startSize=0;swimlaneHead=0;swimlaneBody=0;strokeColor=inherit;top=0;left=0;bottom=0;right=0;collapsible=0;dropTarget=0;fillColor=none;points=[[0,0.5],[1,0.5]];portConstraint=eastwest;fontSize=16;" vertex="1" parent="fxLRTl5XbmtIzIpJdOrr-114">
          <mxGeometry width="109.33285714285715" height="25" as="geometry" />
        </mxCell>
        <mxCell id="fxLRTl5XbmtIzIpJdOrr-116" value="" style="shape=partialRectangle;html=1;whiteSpace=wrap;connectable=0;strokeColor=inherit;overflow=hidden;fillColor=none;top=0;left=0;bottom=0;right=0;pointerEvents=1;fontSize=16;" vertex="1" parent="fxLRTl5XbmtIzIpJdOrr-115">
          <mxGeometry width="36" height="25" as="geometry">
            <mxRectangle width="36" height="25" as="alternateBounds" />
          </mxGeometry>
        </mxCell>
        <mxCell id="fxLRTl5XbmtIzIpJdOrr-117" value="" style="shape=partialRectangle;html=1;whiteSpace=wrap;connectable=0;strokeColor=inherit;overflow=hidden;fillColor=none;top=0;left=0;bottom=0;right=0;pointerEvents=1;fontSize=16;" vertex="1" parent="fxLRTl5XbmtIzIpJdOrr-115">
          <mxGeometry x="36" width="37" height="25" as="geometry">
            <mxRectangle width="37" height="25" as="alternateBounds" />
          </mxGeometry>
        </mxCell>
        <mxCell id="fxLRTl5XbmtIzIpJdOrr-118" value="" style="shape=partialRectangle;html=1;whiteSpace=wrap;connectable=0;strokeColor=inherit;overflow=hidden;fillColor=none;top=0;left=0;bottom=0;right=0;pointerEvents=1;fontSize=16;" vertex="1" parent="fxLRTl5XbmtIzIpJdOrr-115">
          <mxGeometry x="73" width="36" height="25" as="geometry">
            <mxRectangle width="36" height="25" as="alternateBounds" />
          </mxGeometry>
        </mxCell>
        <mxCell id="fxLRTl5XbmtIzIpJdOrr-119" value="" style="shape=tableRow;horizontal=0;startSize=0;swimlaneHead=0;swimlaneBody=0;strokeColor=inherit;top=0;left=0;bottom=0;right=0;collapsible=0;dropTarget=0;fillColor=none;points=[[0,0.5],[1,0.5]];portConstraint=eastwest;fontSize=16;" vertex="1" parent="fxLRTl5XbmtIzIpJdOrr-114">
          <mxGeometry y="25" width="109.33285714285715" height="23" as="geometry" />
        </mxCell>
        <mxCell id="fxLRTl5XbmtIzIpJdOrr-120" value="" style="shape=partialRectangle;html=1;whiteSpace=wrap;connectable=0;strokeColor=inherit;overflow=hidden;fillColor=none;top=0;left=0;bottom=0;right=0;pointerEvents=1;fontSize=16;" vertex="1" parent="fxLRTl5XbmtIzIpJdOrr-119">
          <mxGeometry width="36" height="23" as="geometry">
            <mxRectangle width="36" height="23" as="alternateBounds" />
          </mxGeometry>
        </mxCell>
        <mxCell id="fxLRTl5XbmtIzIpJdOrr-121" value="" style="shape=partialRectangle;html=1;whiteSpace=wrap;connectable=0;strokeColor=inherit;overflow=hidden;fillColor=none;top=0;left=0;bottom=0;right=0;pointerEvents=1;fontSize=16;" vertex="1" parent="fxLRTl5XbmtIzIpJdOrr-119">
          <mxGeometry x="36" width="37" height="23" as="geometry">
            <mxRectangle width="37" height="23" as="alternateBounds" />
          </mxGeometry>
        </mxCell>
        <mxCell id="fxLRTl5XbmtIzIpJdOrr-122" value="" style="shape=partialRectangle;html=1;whiteSpace=wrap;connectable=0;strokeColor=inherit;overflow=hidden;fillColor=none;top=0;left=0;bottom=0;right=0;pointerEvents=1;fontSize=16;" vertex="1" parent="fxLRTl5XbmtIzIpJdOrr-119">
          <mxGeometry x="73" width="36" height="23" as="geometry">
            <mxRectangle width="36" height="23" as="alternateBounds" />
          </mxGeometry>
        </mxCell>
        <mxCell id="fxLRTl5XbmtIzIpJdOrr-123" value="" style="shape=tableRow;horizontal=0;startSize=0;swimlaneHead=0;swimlaneBody=0;strokeColor=inherit;top=0;left=0;bottom=0;right=0;collapsible=0;dropTarget=0;fillColor=none;points=[[0,0.5],[1,0.5]];portConstraint=eastwest;fontSize=16;" vertex="1" parent="fxLRTl5XbmtIzIpJdOrr-114">
          <mxGeometry y="48" width="109.33285714285715" height="25" as="geometry" />
        </mxCell>
        <mxCell id="fxLRTl5XbmtIzIpJdOrr-124" value="" style="shape=partialRectangle;html=1;whiteSpace=wrap;connectable=0;strokeColor=inherit;overflow=hidden;fillColor=none;top=0;left=0;bottom=0;right=0;pointerEvents=1;fontSize=16;" vertex="1" parent="fxLRTl5XbmtIzIpJdOrr-123">
          <mxGeometry width="36" height="25" as="geometry">
            <mxRectangle width="36" height="25" as="alternateBounds" />
          </mxGeometry>
        </mxCell>
        <mxCell id="fxLRTl5XbmtIzIpJdOrr-125" value="" style="shape=partialRectangle;html=1;whiteSpace=wrap;connectable=0;strokeColor=inherit;overflow=hidden;fillColor=none;top=0;left=0;bottom=0;right=0;pointerEvents=1;fontSize=16;" vertex="1" parent="fxLRTl5XbmtIzIpJdOrr-123">
          <mxGeometry x="36" width="37" height="25" as="geometry">
            <mxRectangle width="37" height="25" as="alternateBounds" />
          </mxGeometry>
        </mxCell>
        <mxCell id="fxLRTl5XbmtIzIpJdOrr-126" value="" style="shape=partialRectangle;html=1;whiteSpace=wrap;connectable=0;strokeColor=inherit;overflow=hidden;fillColor=none;top=0;left=0;bottom=0;right=0;pointerEvents=1;fontSize=16;" vertex="1" parent="fxLRTl5XbmtIzIpJdOrr-123">
          <mxGeometry x="73" width="36" height="25" as="geometry">
            <mxRectangle width="36" height="25" as="alternateBounds" />
          </mxGeometry>
        </mxCell>
        <mxCell id="fxLRTl5XbmtIzIpJdOrr-127" value="" style="shape=table;startSize=0;container=1;collapsible=0;childLayout=tableLayout;fontSize=16;fillColor=#b0e3e6;strokeColor=#0e8088;" vertex="1" parent="1">
          <mxGeometry x="124" y="762.1111111111111" width="109.33285714285715" height="72.88888888888889" as="geometry" />
        </mxCell>
        <mxCell id="fxLRTl5XbmtIzIpJdOrr-128" value="" style="shape=tableRow;horizontal=0;startSize=0;swimlaneHead=0;swimlaneBody=0;strokeColor=inherit;top=0;left=0;bottom=0;right=0;collapsible=0;dropTarget=0;fillColor=none;points=[[0,0.5],[1,0.5]];portConstraint=eastwest;fontSize=16;" vertex="1" parent="fxLRTl5XbmtIzIpJdOrr-127">
          <mxGeometry width="109.33285714285715" height="25" as="geometry" />
        </mxCell>
        <mxCell id="fxLRTl5XbmtIzIpJdOrr-129" value="" style="shape=partialRectangle;html=1;whiteSpace=wrap;connectable=0;strokeColor=inherit;overflow=hidden;fillColor=none;top=0;left=0;bottom=0;right=0;pointerEvents=1;fontSize=16;" vertex="1" parent="fxLRTl5XbmtIzIpJdOrr-128">
          <mxGeometry width="36" height="25" as="geometry">
            <mxRectangle width="36" height="25" as="alternateBounds" />
          </mxGeometry>
        </mxCell>
        <mxCell id="fxLRTl5XbmtIzIpJdOrr-130" value="" style="shape=partialRectangle;html=1;whiteSpace=wrap;connectable=0;strokeColor=inherit;overflow=hidden;fillColor=none;top=0;left=0;bottom=0;right=0;pointerEvents=1;fontSize=16;" vertex="1" parent="fxLRTl5XbmtIzIpJdOrr-128">
          <mxGeometry x="36" width="37" height="25" as="geometry">
            <mxRectangle width="37" height="25" as="alternateBounds" />
          </mxGeometry>
        </mxCell>
        <mxCell id="fxLRTl5XbmtIzIpJdOrr-131" value="" style="shape=partialRectangle;html=1;whiteSpace=wrap;connectable=0;strokeColor=inherit;overflow=hidden;fillColor=none;top=0;left=0;bottom=0;right=0;pointerEvents=1;fontSize=16;" vertex="1" parent="fxLRTl5XbmtIzIpJdOrr-128">
          <mxGeometry x="73" width="36" height="25" as="geometry">
            <mxRectangle width="36" height="25" as="alternateBounds" />
          </mxGeometry>
        </mxCell>
        <mxCell id="fxLRTl5XbmtIzIpJdOrr-132" value="" style="shape=tableRow;horizontal=0;startSize=0;swimlaneHead=0;swimlaneBody=0;strokeColor=inherit;top=0;left=0;bottom=0;right=0;collapsible=0;dropTarget=0;fillColor=none;points=[[0,0.5],[1,0.5]];portConstraint=eastwest;fontSize=16;" vertex="1" parent="fxLRTl5XbmtIzIpJdOrr-127">
          <mxGeometry y="25" width="109.33285714285715" height="23" as="geometry" />
        </mxCell>
        <mxCell id="fxLRTl5XbmtIzIpJdOrr-133" value="" style="shape=partialRectangle;html=1;whiteSpace=wrap;connectable=0;strokeColor=inherit;overflow=hidden;fillColor=none;top=0;left=0;bottom=0;right=0;pointerEvents=1;fontSize=16;" vertex="1" parent="fxLRTl5XbmtIzIpJdOrr-132">
          <mxGeometry width="36" height="23" as="geometry">
            <mxRectangle width="36" height="23" as="alternateBounds" />
          </mxGeometry>
        </mxCell>
        <mxCell id="fxLRTl5XbmtIzIpJdOrr-134" value="" style="shape=partialRectangle;html=1;whiteSpace=wrap;connectable=0;strokeColor=inherit;overflow=hidden;fillColor=none;top=0;left=0;bottom=0;right=0;pointerEvents=1;fontSize=16;" vertex="1" parent="fxLRTl5XbmtIzIpJdOrr-132">
          <mxGeometry x="36" width="37" height="23" as="geometry">
            <mxRectangle width="37" height="23" as="alternateBounds" />
          </mxGeometry>
        </mxCell>
        <mxCell id="fxLRTl5XbmtIzIpJdOrr-135" value="" style="shape=partialRectangle;html=1;whiteSpace=wrap;connectable=0;strokeColor=inherit;overflow=hidden;fillColor=none;top=0;left=0;bottom=0;right=0;pointerEvents=1;fontSize=16;" vertex="1" parent="fxLRTl5XbmtIzIpJdOrr-132">
          <mxGeometry x="73" width="36" height="23" as="geometry">
            <mxRectangle width="36" height="23" as="alternateBounds" />
          </mxGeometry>
        </mxCell>
        <mxCell id="fxLRTl5XbmtIzIpJdOrr-136" value="" style="shape=tableRow;horizontal=0;startSize=0;swimlaneHead=0;swimlaneBody=0;strokeColor=inherit;top=0;left=0;bottom=0;right=0;collapsible=0;dropTarget=0;fillColor=none;points=[[0,0.5],[1,0.5]];portConstraint=eastwest;fontSize=16;" vertex="1" parent="fxLRTl5XbmtIzIpJdOrr-127">
          <mxGeometry y="48" width="109.33285714285715" height="25" as="geometry" />
        </mxCell>
        <mxCell id="fxLRTl5XbmtIzIpJdOrr-137" value="" style="shape=partialRectangle;html=1;whiteSpace=wrap;connectable=0;strokeColor=inherit;overflow=hidden;fillColor=none;top=0;left=0;bottom=0;right=0;pointerEvents=1;fontSize=16;" vertex="1" parent="fxLRTl5XbmtIzIpJdOrr-136">
          <mxGeometry width="36" height="25" as="geometry">
            <mxRectangle width="36" height="25" as="alternateBounds" />
          </mxGeometry>
        </mxCell>
        <mxCell id="fxLRTl5XbmtIzIpJdOrr-138" value="" style="shape=partialRectangle;html=1;whiteSpace=wrap;connectable=0;strokeColor=inherit;overflow=hidden;fillColor=none;top=0;left=0;bottom=0;right=0;pointerEvents=1;fontSize=16;" vertex="1" parent="fxLRTl5XbmtIzIpJdOrr-136">
          <mxGeometry x="36" width="37" height="25" as="geometry">
            <mxRectangle width="37" height="25" as="alternateBounds" />
          </mxGeometry>
        </mxCell>
        <mxCell id="fxLRTl5XbmtIzIpJdOrr-139" value="" style="shape=partialRectangle;html=1;whiteSpace=wrap;connectable=0;strokeColor=inherit;overflow=hidden;fillColor=none;top=0;left=0;bottom=0;right=0;pointerEvents=1;fontSize=16;" vertex="1" parent="fxLRTl5XbmtIzIpJdOrr-136">
          <mxGeometry x="73" width="36" height="25" as="geometry">
            <mxRectangle width="36" height="25" as="alternateBounds" />
          </mxGeometry>
        </mxCell>
        <mxCell id="fxLRTl5XbmtIzIpJdOrr-140" value="" style="shape=table;startSize=0;container=1;collapsible=0;childLayout=tableLayout;fontSize=16;fillColor=#f8cecc;strokeColor=#b85450;" vertex="1" parent="1">
          <mxGeometry x="124" y="543.4444444444445" width="109.33285714285715" height="72.88888888888889" as="geometry" />
        </mxCell>
        <mxCell id="fxLRTl5XbmtIzIpJdOrr-141" value="" style="shape=tableRow;horizontal=0;startSize=0;swimlaneHead=0;swimlaneBody=0;strokeColor=inherit;top=0;left=0;bottom=0;right=0;collapsible=0;dropTarget=0;fillColor=none;points=[[0,0.5],[1,0.5]];portConstraint=eastwest;fontSize=16;" vertex="1" parent="fxLRTl5XbmtIzIpJdOrr-140">
          <mxGeometry width="109.33285714285715" height="25" as="geometry" />
        </mxCell>
        <mxCell id="fxLRTl5XbmtIzIpJdOrr-142" value="" style="shape=partialRectangle;html=1;whiteSpace=wrap;connectable=0;strokeColor=inherit;overflow=hidden;fillColor=none;top=0;left=0;bottom=0;right=0;pointerEvents=1;fontSize=16;" vertex="1" parent="fxLRTl5XbmtIzIpJdOrr-141">
          <mxGeometry width="36" height="25" as="geometry">
            <mxRectangle width="36" height="25" as="alternateBounds" />
          </mxGeometry>
        </mxCell>
        <mxCell id="fxLRTl5XbmtIzIpJdOrr-143" value="" style="shape=partialRectangle;html=1;whiteSpace=wrap;connectable=0;strokeColor=inherit;overflow=hidden;fillColor=none;top=0;left=0;bottom=0;right=0;pointerEvents=1;fontSize=16;" vertex="1" parent="fxLRTl5XbmtIzIpJdOrr-141">
          <mxGeometry x="36" width="37" height="25" as="geometry">
            <mxRectangle width="37" height="25" as="alternateBounds" />
          </mxGeometry>
        </mxCell>
        <mxCell id="fxLRTl5XbmtIzIpJdOrr-144" value="" style="shape=partialRectangle;html=1;whiteSpace=wrap;connectable=0;strokeColor=inherit;overflow=hidden;fillColor=none;top=0;left=0;bottom=0;right=0;pointerEvents=1;fontSize=16;" vertex="1" parent="fxLRTl5XbmtIzIpJdOrr-141">
          <mxGeometry x="73" width="36" height="25" as="geometry">
            <mxRectangle width="36" height="25" as="alternateBounds" />
          </mxGeometry>
        </mxCell>
        <mxCell id="fxLRTl5XbmtIzIpJdOrr-145" value="" style="shape=tableRow;horizontal=0;startSize=0;swimlaneHead=0;swimlaneBody=0;strokeColor=inherit;top=0;left=0;bottom=0;right=0;collapsible=0;dropTarget=0;fillColor=none;points=[[0,0.5],[1,0.5]];portConstraint=eastwest;fontSize=16;" vertex="1" parent="fxLRTl5XbmtIzIpJdOrr-140">
          <mxGeometry y="25" width="109.33285714285715" height="23" as="geometry" />
        </mxCell>
        <mxCell id="fxLRTl5XbmtIzIpJdOrr-146" value="" style="shape=partialRectangle;html=1;whiteSpace=wrap;connectable=0;strokeColor=inherit;overflow=hidden;fillColor=none;top=0;left=0;bottom=0;right=0;pointerEvents=1;fontSize=16;" vertex="1" parent="fxLRTl5XbmtIzIpJdOrr-145">
          <mxGeometry width="36" height="23" as="geometry">
            <mxRectangle width="36" height="23" as="alternateBounds" />
          </mxGeometry>
        </mxCell>
        <mxCell id="fxLRTl5XbmtIzIpJdOrr-147" value="" style="shape=partialRectangle;html=1;whiteSpace=wrap;connectable=0;strokeColor=inherit;overflow=hidden;fillColor=none;top=0;left=0;bottom=0;right=0;pointerEvents=1;fontSize=16;" vertex="1" parent="fxLRTl5XbmtIzIpJdOrr-145">
          <mxGeometry x="36" width="37" height="23" as="geometry">
            <mxRectangle width="37" height="23" as="alternateBounds" />
          </mxGeometry>
        </mxCell>
        <mxCell id="fxLRTl5XbmtIzIpJdOrr-148" value="" style="shape=partialRectangle;html=1;whiteSpace=wrap;connectable=0;strokeColor=inherit;overflow=hidden;fillColor=none;top=0;left=0;bottom=0;right=0;pointerEvents=1;fontSize=16;" vertex="1" parent="fxLRTl5XbmtIzIpJdOrr-145">
          <mxGeometry x="73" width="36" height="23" as="geometry">
            <mxRectangle width="36" height="23" as="alternateBounds" />
          </mxGeometry>
        </mxCell>
        <mxCell id="fxLRTl5XbmtIzIpJdOrr-149" value="" style="shape=tableRow;horizontal=0;startSize=0;swimlaneHead=0;swimlaneBody=0;strokeColor=inherit;top=0;left=0;bottom=0;right=0;collapsible=0;dropTarget=0;fillColor=none;points=[[0,0.5],[1,0.5]];portConstraint=eastwest;fontSize=16;" vertex="1" parent="fxLRTl5XbmtIzIpJdOrr-140">
          <mxGeometry y="48" width="109.33285714285715" height="25" as="geometry" />
        </mxCell>
        <mxCell id="fxLRTl5XbmtIzIpJdOrr-150" value="" style="shape=partialRectangle;html=1;whiteSpace=wrap;connectable=0;strokeColor=inherit;overflow=hidden;fillColor=none;top=0;left=0;bottom=0;right=0;pointerEvents=1;fontSize=16;" vertex="1" parent="fxLRTl5XbmtIzIpJdOrr-149">
          <mxGeometry width="36" height="25" as="geometry">
            <mxRectangle width="36" height="25" as="alternateBounds" />
          </mxGeometry>
        </mxCell>
        <mxCell id="fxLRTl5XbmtIzIpJdOrr-151" value="" style="shape=partialRectangle;html=1;whiteSpace=wrap;connectable=0;strokeColor=inherit;overflow=hidden;fillColor=none;top=0;left=0;bottom=0;right=0;pointerEvents=1;fontSize=16;" vertex="1" parent="fxLRTl5XbmtIzIpJdOrr-149">
          <mxGeometry x="36" width="37" height="25" as="geometry">
            <mxRectangle width="37" height="25" as="alternateBounds" />
          </mxGeometry>
        </mxCell>
        <mxCell id="fxLRTl5XbmtIzIpJdOrr-152" value="" style="shape=partialRectangle;html=1;whiteSpace=wrap;connectable=0;strokeColor=inherit;overflow=hidden;fillColor=none;top=0;left=0;bottom=0;right=0;pointerEvents=1;fontSize=16;" vertex="1" parent="fxLRTl5XbmtIzIpJdOrr-149">
          <mxGeometry x="73" width="36" height="25" as="geometry">
            <mxRectangle width="36" height="25" as="alternateBounds" />
          </mxGeometry>
        </mxCell>
        <mxCell id="fxLRTl5XbmtIzIpJdOrr-169" style="edgeStyle=orthogonalEdgeStyle;rounded=0;orthogonalLoop=1;jettySize=auto;html=1;entryX=0.5;entryY=0;entryDx=0;entryDy=0;entryPerimeter=0;" edge="1" parent="1" source="fxLRTl5XbmtIzIpJdOrr-49" target="fxLRTl5XbmtIzIpJdOrr-89">
          <mxGeometry relative="1" as="geometry">
            <Array as="points">
              <mxPoint x="178.66642857142858" y="114.66666666666666" />
            </Array>
          </mxGeometry>
        </mxCell>
        <mxCell id="fxLRTl5XbmtIzIpJdOrr-170" style="edgeStyle=orthogonalEdgeStyle;rounded=0;orthogonalLoop=1;jettySize=auto;html=1;entryX=0.5;entryY=0;entryDx=0;entryDy=0;entryPerimeter=0;" edge="1" parent="1" source="fxLRTl5XbmtIzIpJdOrr-88" target="fxLRTl5XbmtIzIpJdOrr-76">
          <mxGeometry relative="1" as="geometry" />
        </mxCell>
        <mxCell id="fxLRTl5XbmtIzIpJdOrr-171" style="edgeStyle=orthogonalEdgeStyle;rounded=0;orthogonalLoop=1;jettySize=auto;html=1;entryX=0.5;entryY=0;entryDx=0;entryDy=0;entryPerimeter=0;" edge="1" parent="1" source="fxLRTl5XbmtIzIpJdOrr-75" target="fxLRTl5XbmtIzIpJdOrr-102">
          <mxGeometry relative="1" as="geometry" />
        </mxCell>
        <mxCell id="fxLRTl5XbmtIzIpJdOrr-172" style="edgeStyle=orthogonalEdgeStyle;rounded=0;orthogonalLoop=1;jettySize=auto;html=1;entryX=0.5;entryY=0;entryDx=0;entryDy=0;entryPerimeter=0;" edge="1" parent="1" source="fxLRTl5XbmtIzIpJdOrr-101" target="fxLRTl5XbmtIzIpJdOrr-141">
          <mxGeometry relative="1" as="geometry" />
        </mxCell>
        <mxCell id="fxLRTl5XbmtIzIpJdOrr-174" style="edgeStyle=orthogonalEdgeStyle;rounded=0;orthogonalLoop=1;jettySize=auto;html=1;entryX=0.5;entryY=0;entryDx=0;entryDy=0;entryPerimeter=0;" edge="1" parent="1" source="fxLRTl5XbmtIzIpJdOrr-140" target="fxLRTl5XbmtIzIpJdOrr-115">
          <mxGeometry relative="1" as="geometry" />
        </mxCell>
        <mxCell id="fxLRTl5XbmtIzIpJdOrr-175" style="edgeStyle=orthogonalEdgeStyle;rounded=0;orthogonalLoop=1;jettySize=auto;html=1;entryX=0.5;entryY=0;entryDx=0;entryDy=0;entryPerimeter=0;" edge="1" parent="1" source="fxLRTl5XbmtIzIpJdOrr-114" target="fxLRTl5XbmtIzIpJdOrr-128">
          <mxGeometry relative="1" as="geometry" />
        </mxCell>
        <mxCell id="fxLRTl5XbmtIzIpJdOrr-178" style="edgeStyle=orthogonalEdgeStyle;rounded=0;orthogonalLoop=1;jettySize=auto;html=1;entryX=0.685;entryY=-0.031;entryDx=0;entryDy=0;entryPerimeter=0;exitX=0.029;exitY=0.09;exitDx=0;exitDy=0;exitPerimeter=0;" edge="1" parent="1">
          <mxGeometry relative="1" as="geometry">
            <mxPoint x="269.7777957142857" y="244.7533333333334" as="sourcePoint" />
            <mxPoint x="195.7230071428572" y="213.5994444444445" as="targetPoint" />
            <Array as="points">
              <mxPoint x="247" y="245" />
              <mxPoint x="247" y="194" />
              <mxPoint x="196" y="194" />
            </Array>
          </mxGeometry>
        </mxCell>
        <mxCell id="fxLRTl5XbmtIzIpJdOrr-216" style="edgeStyle=orthogonalEdgeStyle;rounded=0;orthogonalLoop=1;jettySize=auto;html=1;entryX=0.5;entryY=0;entryDx=0;entryDy=0;entryPerimeter=0;" edge="1" parent="1" target="fxLRTl5XbmtIzIpJdOrr-204">
          <mxGeometry relative="1" as="geometry">
            <mxPoint x="180" y="835" as="sourcePoint" />
          </mxGeometry>
        </mxCell>
        <mxCell id="fxLRTl5XbmtIzIpJdOrr-203" value="" style="shape=table;startSize=0;container=1;collapsible=0;childLayout=tableLayout;fontSize=16;fillColor=#bac8d3;strokeColor=#23445d;" vertex="1" parent="1">
          <mxGeometry x="123" y="870.0011111111111" width="109.33285714285715" height="72.88888888888889" as="geometry" />
        </mxCell>
        <mxCell id="fxLRTl5XbmtIzIpJdOrr-204" value="" style="shape=tableRow;horizontal=0;startSize=0;swimlaneHead=0;swimlaneBody=0;strokeColor=inherit;top=0;left=0;bottom=0;right=0;collapsible=0;dropTarget=0;fillColor=none;points=[[0,0.5],[1,0.5]];portConstraint=eastwest;fontSize=16;" vertex="1" parent="fxLRTl5XbmtIzIpJdOrr-203">
          <mxGeometry width="109.33285714285715" height="25" as="geometry" />
        </mxCell>
        <mxCell id="fxLRTl5XbmtIzIpJdOrr-205" value="" style="shape=partialRectangle;html=1;whiteSpace=wrap;connectable=0;strokeColor=inherit;overflow=hidden;fillColor=none;top=0;left=0;bottom=0;right=0;pointerEvents=1;fontSize=16;" vertex="1" parent="fxLRTl5XbmtIzIpJdOrr-204">
          <mxGeometry width="36" height="25" as="geometry">
            <mxRectangle width="36" height="25" as="alternateBounds" />
          </mxGeometry>
        </mxCell>
        <mxCell id="fxLRTl5XbmtIzIpJdOrr-206" value="" style="shape=partialRectangle;html=1;whiteSpace=wrap;connectable=0;strokeColor=inherit;overflow=hidden;fillColor=none;top=0;left=0;bottom=0;right=0;pointerEvents=1;fontSize=16;" vertex="1" parent="fxLRTl5XbmtIzIpJdOrr-204">
          <mxGeometry x="36" width="37" height="25" as="geometry">
            <mxRectangle width="37" height="25" as="alternateBounds" />
          </mxGeometry>
        </mxCell>
        <mxCell id="fxLRTl5XbmtIzIpJdOrr-207" value="" style="shape=partialRectangle;html=1;whiteSpace=wrap;connectable=0;strokeColor=inherit;overflow=hidden;fillColor=none;top=0;left=0;bottom=0;right=0;pointerEvents=1;fontSize=16;" vertex="1" parent="fxLRTl5XbmtIzIpJdOrr-204">
          <mxGeometry x="73" width="36" height="25" as="geometry">
            <mxRectangle width="36" height="25" as="alternateBounds" />
          </mxGeometry>
        </mxCell>
        <mxCell id="fxLRTl5XbmtIzIpJdOrr-208" value="" style="shape=tableRow;horizontal=0;startSize=0;swimlaneHead=0;swimlaneBody=0;strokeColor=inherit;top=0;left=0;bottom=0;right=0;collapsible=0;dropTarget=0;fillColor=none;points=[[0,0.5],[1,0.5]];portConstraint=eastwest;fontSize=16;" vertex="1" parent="fxLRTl5XbmtIzIpJdOrr-203">
          <mxGeometry y="25" width="109.33285714285715" height="23" as="geometry" />
        </mxCell>
        <mxCell id="fxLRTl5XbmtIzIpJdOrr-209" value="" style="shape=partialRectangle;html=1;whiteSpace=wrap;connectable=0;strokeColor=inherit;overflow=hidden;fillColor=none;top=0;left=0;bottom=0;right=0;pointerEvents=1;fontSize=16;" vertex="1" parent="fxLRTl5XbmtIzIpJdOrr-208">
          <mxGeometry width="36" height="23" as="geometry">
            <mxRectangle width="36" height="23" as="alternateBounds" />
          </mxGeometry>
        </mxCell>
        <mxCell id="fxLRTl5XbmtIzIpJdOrr-210" value="" style="shape=partialRectangle;html=1;whiteSpace=wrap;connectable=0;strokeColor=inherit;overflow=hidden;fillColor=none;top=0;left=0;bottom=0;right=0;pointerEvents=1;fontSize=16;" vertex="1" parent="fxLRTl5XbmtIzIpJdOrr-208">
          <mxGeometry x="36" width="37" height="23" as="geometry">
            <mxRectangle width="37" height="23" as="alternateBounds" />
          </mxGeometry>
        </mxCell>
        <mxCell id="fxLRTl5XbmtIzIpJdOrr-211" value="" style="shape=partialRectangle;html=1;whiteSpace=wrap;connectable=0;strokeColor=inherit;overflow=hidden;fillColor=none;top=0;left=0;bottom=0;right=0;pointerEvents=1;fontSize=16;" vertex="1" parent="fxLRTl5XbmtIzIpJdOrr-208">
          <mxGeometry x="73" width="36" height="23" as="geometry">
            <mxRectangle width="36" height="23" as="alternateBounds" />
          </mxGeometry>
        </mxCell>
        <mxCell id="fxLRTl5XbmtIzIpJdOrr-212" value="" style="shape=tableRow;horizontal=0;startSize=0;swimlaneHead=0;swimlaneBody=0;strokeColor=inherit;top=0;left=0;bottom=0;right=0;collapsible=0;dropTarget=0;fillColor=none;points=[[0,0.5],[1,0.5]];portConstraint=eastwest;fontSize=16;" vertex="1" parent="fxLRTl5XbmtIzIpJdOrr-203">
          <mxGeometry y="48" width="109.33285714285715" height="25" as="geometry" />
        </mxCell>
        <mxCell id="fxLRTl5XbmtIzIpJdOrr-213" value="" style="shape=partialRectangle;html=1;whiteSpace=wrap;connectable=0;strokeColor=inherit;overflow=hidden;fillColor=none;top=0;left=0;bottom=0;right=0;pointerEvents=1;fontSize=16;" vertex="1" parent="fxLRTl5XbmtIzIpJdOrr-212">
          <mxGeometry width="36" height="25" as="geometry">
            <mxRectangle width="36" height="25" as="alternateBounds" />
          </mxGeometry>
        </mxCell>
        <mxCell id="fxLRTl5XbmtIzIpJdOrr-214" value="" style="shape=partialRectangle;html=1;whiteSpace=wrap;connectable=0;strokeColor=inherit;overflow=hidden;fillColor=none;top=0;left=0;bottom=0;right=0;pointerEvents=1;fontSize=16;" vertex="1" parent="fxLRTl5XbmtIzIpJdOrr-212">
          <mxGeometry x="36" width="37" height="25" as="geometry">
            <mxRectangle width="37" height="25" as="alternateBounds" />
          </mxGeometry>
        </mxCell>
        <mxCell id="fxLRTl5XbmtIzIpJdOrr-215" value="" style="shape=partialRectangle;html=1;whiteSpace=wrap;connectable=0;strokeColor=inherit;overflow=hidden;fillColor=none;top=0;left=0;bottom=0;right=0;pointerEvents=1;fontSize=16;" vertex="1" parent="fxLRTl5XbmtIzIpJdOrr-212">
          <mxGeometry x="73" width="36" height="25" as="geometry">
            <mxRectangle width="36" height="25" as="alternateBounds" />
          </mxGeometry>
        </mxCell>
        <mxCell id="fxLRTl5XbmtIzIpJdOrr-218" value="" style="shape=table;startSize=0;container=1;collapsible=0;childLayout=tableLayout;fontSize=16;fillColor=#fad7ac;strokeColor=#b46504;" vertex="1" parent="1">
          <mxGeometry x="123" y="975.0011111111111" width="109.33285714285715" height="72.88888888888889" as="geometry" />
        </mxCell>
        <mxCell id="fxLRTl5XbmtIzIpJdOrr-219" value="" style="shape=tableRow;horizontal=0;startSize=0;swimlaneHead=0;swimlaneBody=0;strokeColor=inherit;top=0;left=0;bottom=0;right=0;collapsible=0;dropTarget=0;fillColor=none;points=[[0,0.5],[1,0.5]];portConstraint=eastwest;fontSize=16;" vertex="1" parent="fxLRTl5XbmtIzIpJdOrr-218">
          <mxGeometry width="109.33285714285715" height="25" as="geometry" />
        </mxCell>
        <mxCell id="fxLRTl5XbmtIzIpJdOrr-220" value="" style="shape=partialRectangle;html=1;whiteSpace=wrap;connectable=0;strokeColor=inherit;overflow=hidden;fillColor=none;top=0;left=0;bottom=0;right=0;pointerEvents=1;fontSize=16;" vertex="1" parent="fxLRTl5XbmtIzIpJdOrr-219">
          <mxGeometry width="36" height="25" as="geometry">
            <mxRectangle width="36" height="25" as="alternateBounds" />
          </mxGeometry>
        </mxCell>
        <mxCell id="fxLRTl5XbmtIzIpJdOrr-221" value="" style="shape=partialRectangle;html=1;whiteSpace=wrap;connectable=0;strokeColor=inherit;overflow=hidden;fillColor=none;top=0;left=0;bottom=0;right=0;pointerEvents=1;fontSize=16;" vertex="1" parent="fxLRTl5XbmtIzIpJdOrr-219">
          <mxGeometry x="36" width="37" height="25" as="geometry">
            <mxRectangle width="37" height="25" as="alternateBounds" />
          </mxGeometry>
        </mxCell>
        <mxCell id="fxLRTl5XbmtIzIpJdOrr-222" value="" style="shape=partialRectangle;html=1;whiteSpace=wrap;connectable=0;strokeColor=inherit;overflow=hidden;fillColor=none;top=0;left=0;bottom=0;right=0;pointerEvents=1;fontSize=16;" vertex="1" parent="fxLRTl5XbmtIzIpJdOrr-219">
          <mxGeometry x="73" width="36" height="25" as="geometry">
            <mxRectangle width="36" height="25" as="alternateBounds" />
          </mxGeometry>
        </mxCell>
        <mxCell id="fxLRTl5XbmtIzIpJdOrr-223" value="" style="shape=tableRow;horizontal=0;startSize=0;swimlaneHead=0;swimlaneBody=0;strokeColor=inherit;top=0;left=0;bottom=0;right=0;collapsible=0;dropTarget=0;fillColor=none;points=[[0,0.5],[1,0.5]];portConstraint=eastwest;fontSize=16;" vertex="1" parent="fxLRTl5XbmtIzIpJdOrr-218">
          <mxGeometry y="25" width="109.33285714285715" height="23" as="geometry" />
        </mxCell>
        <mxCell id="fxLRTl5XbmtIzIpJdOrr-224" value="" style="shape=partialRectangle;html=1;whiteSpace=wrap;connectable=0;strokeColor=inherit;overflow=hidden;fillColor=none;top=0;left=0;bottom=0;right=0;pointerEvents=1;fontSize=16;" vertex="1" parent="fxLRTl5XbmtIzIpJdOrr-223">
          <mxGeometry width="36" height="23" as="geometry">
            <mxRectangle width="36" height="23" as="alternateBounds" />
          </mxGeometry>
        </mxCell>
        <mxCell id="fxLRTl5XbmtIzIpJdOrr-225" value="" style="shape=partialRectangle;html=1;whiteSpace=wrap;connectable=0;strokeColor=inherit;overflow=hidden;fillColor=none;top=0;left=0;bottom=0;right=0;pointerEvents=1;fontSize=16;" vertex="1" parent="fxLRTl5XbmtIzIpJdOrr-223">
          <mxGeometry x="36" width="37" height="23" as="geometry">
            <mxRectangle width="37" height="23" as="alternateBounds" />
          </mxGeometry>
        </mxCell>
        <mxCell id="fxLRTl5XbmtIzIpJdOrr-226" value="" style="shape=partialRectangle;html=1;whiteSpace=wrap;connectable=0;strokeColor=inherit;overflow=hidden;fillColor=none;top=0;left=0;bottom=0;right=0;pointerEvents=1;fontSize=16;" vertex="1" parent="fxLRTl5XbmtIzIpJdOrr-223">
          <mxGeometry x="73" width="36" height="23" as="geometry">
            <mxRectangle width="36" height="23" as="alternateBounds" />
          </mxGeometry>
        </mxCell>
        <mxCell id="fxLRTl5XbmtIzIpJdOrr-227" value="" style="shape=tableRow;horizontal=0;startSize=0;swimlaneHead=0;swimlaneBody=0;strokeColor=inherit;top=0;left=0;bottom=0;right=0;collapsible=0;dropTarget=0;fillColor=none;points=[[0,0.5],[1,0.5]];portConstraint=eastwest;fontSize=16;" vertex="1" parent="fxLRTl5XbmtIzIpJdOrr-218">
          <mxGeometry y="48" width="109.33285714285715" height="25" as="geometry" />
        </mxCell>
        <mxCell id="fxLRTl5XbmtIzIpJdOrr-228" value="" style="shape=partialRectangle;html=1;whiteSpace=wrap;connectable=0;strokeColor=inherit;overflow=hidden;fillColor=none;top=0;left=0;bottom=0;right=0;pointerEvents=1;fontSize=16;" vertex="1" parent="fxLRTl5XbmtIzIpJdOrr-227">
          <mxGeometry width="36" height="25" as="geometry">
            <mxRectangle width="36" height="25" as="alternateBounds" />
          </mxGeometry>
        </mxCell>
        <mxCell id="fxLRTl5XbmtIzIpJdOrr-229" value="" style="shape=partialRectangle;html=1;whiteSpace=wrap;connectable=0;strokeColor=inherit;overflow=hidden;fillColor=none;top=0;left=0;bottom=0;right=0;pointerEvents=1;fontSize=16;" vertex="1" parent="fxLRTl5XbmtIzIpJdOrr-227">
          <mxGeometry x="36" width="37" height="25" as="geometry">
            <mxRectangle width="37" height="25" as="alternateBounds" />
          </mxGeometry>
        </mxCell>
        <mxCell id="fxLRTl5XbmtIzIpJdOrr-230" value="" style="shape=partialRectangle;html=1;whiteSpace=wrap;connectable=0;strokeColor=inherit;overflow=hidden;fillColor=none;top=0;left=0;bottom=0;right=0;pointerEvents=1;fontSize=16;" vertex="1" parent="fxLRTl5XbmtIzIpJdOrr-227">
          <mxGeometry x="73" width="36" height="25" as="geometry">
            <mxRectangle width="36" height="25" as="alternateBounds" />
          </mxGeometry>
        </mxCell>
        <mxCell id="fxLRTl5XbmtIzIpJdOrr-231" style="edgeStyle=orthogonalEdgeStyle;rounded=0;orthogonalLoop=1;jettySize=auto;html=1;entryX=0.5;entryY=0;entryDx=0;entryDy=0;entryPerimeter=0;" edge="1" parent="1" source="fxLRTl5XbmtIzIpJdOrr-203" target="fxLRTl5XbmtIzIpJdOrr-219">
          <mxGeometry relative="1" as="geometry" />
        </mxCell>
      </root>
    </mxGraphModel>
  </diagram>
</mxfile>
